<?xml version="1.0" standalone="no"?>
<!DOCTYPE svg PUBLIC "-//W3C//DTD SVG 20010904//EN"
    "http://www.w3.org/TR/2001/REC-SVG-20010904/DTD/svg10.dtd">
<svg version="1.0" xmlns="http://www.w3.org/2000/svg"
     width="320.000000pt" height="320.000000pt" viewBox="0 0 320.000000 320.000000"
     preserveAspectRatio="xMidYMid meet">
    <metadata>
        Created by potrace 1.11, written by Peter Selinger 2001-2013
    </metadata>
    <g transform="translate(0.000000,320.000000) scale(0.100000,-0.100000)"
       fill="#000000" stroke="none">
        <path d="M1630 2507 c0 -4 -11 -5 -25 -1 -15 4 -32 1 -40 -6 -12 -10 -15 -10
-15 1 0 9 -3 10 -8 4 -4 -5 -16 -11 -27 -12 -34 -3 -110 -19 -110 -23 0 -1
-11 -3 -24 -6 -14 -2 -30 -9 -38 -15 -7 -6 -13 -9 -13 -6 0 11 -175 -84 -183
-99 -4 -8 -15 -14 -22 -14 -8 0 -15 -4 -15 -9 0 -5 -9 -13 -20 -16 -11 -4 -18
-11 -15 -16 4 -5 1 -9 -5 -9 -6 0 -8 -5 -4 -12 5 -7 3 -8 -6 -3 -14 8 -130
-109 -130 -132 0 -7 -4 -13 -9 -13 -5 0 -15 -16 -22 -34 -7 -20 -17 -32 -23
-29 -6 4 -4 -2 4 -12 9 -11 10 -16 3 -11 -8 4 -13 2 -13 -4 0 -6 -5 -8 -12 -4
-7 5 -9 2 -5 -9 3 -8 -1 -21 -8 -27 -8 -7 -14 -15 -13 -18 1 -4 -3 -17 -10
-28 -6 -12 -8 -24 -5 -28 3 -3 0 -6 -7 -6 -7 0 -10 -3 -7 -7 4 -3 3 -11 -3
-17 -5 -7 -5 -17 0 -26 7 -11 10 -12 10 -2 0 8 5 10 13 6 8 -5 8 -2 -2 9 -8
10 -9 17 -3 17 6 0 9 9 7 21 -4 17 -2 19 10 9 18 -15 20 1 3 19 -9 10 -9 12
-1 7 8 -4 11 0 8 14 -2 11 0 18 6 15 5 -4 6 -11 3 -17 -5 -8 -1 -9 12 -5 18 7
18 6 2 -6 -10 -8 -15 -17 -11 -20 3 -4 1 -13 -5 -20 -7 -8 -8 -18 -4 -22 4 -5
2 -5 -4 -2 -8 4 -12 -3 -12 -21 -1 -49 -14 -122 -23 -122 -4 0 -6 -10 -4 -22
3 -12 -3 -27 -13 -35 -12 -9 -13 -12 -3 -11 13 3 15 -32 9 -122 0 -3 1 -7 2
-10 1 -3 3 -28 6 -56 2 -28 10 -80 18 -114 8 -35 13 -67 10 -72 -3 -4 -1 -8 3
-8 13 0 35 -68 27 -81 -4 -7 -3 -9 3 -6 12 7 27 -20 24 -40 -1 -7 3 -13 10
-13 8 0 7 -5 -2 -17 -10 -11 -10 -14 -1 -9 7 4 12 1 12 -8 0 -10 -6 -13 -17
-10 -15 5 -15 4 -3 -4 10 -8 18 -8 27 0 10 8 12 7 7 -6 -3 -9 -10 -16 -16 -16
-5 0 -3 -7 6 -15 19 -19 32 -20 17 -1 -9 11 -9 16 0 22 7 4 9 3 5 -4 -3 -5 0
-12 6 -15 10 -3 10 -8 -1 -21 -13 -16 -13 -17 4 -14 10 1 20 -4 22 -12 4 -12
3 -12 -5 -1 -7 9 -12 10 -16 2 -4 -6 -2 -11 4 -11 6 0 14 -8 17 -17 4 -10 19
-30 35 -45 15 -16 24 -28 20 -28 -4 0 7 -9 23 -20 17 -11 26 -20 20 -20 -5 0
5 -10 22 -21 18 -12 30 -25 27 -30 -3 -5 2 -6 11 -3 9 4 15 3 14 -2 -3 -20 2
-34 12 -34 5 0 7 6 3 13 -5 9 -4 9 5 1 7 -6 13 -20 14 -32 0 -11 5 -19 9 -16
4 3 6 10 4 17 -1 7 -1 9 1 5 3 -5 11 -8 18 -8 7 0 16 -7 19 -16 6 -15 4 -15
-11 -3 -16 13 -17 12 -4 -4 8 -10 20 -16 28 -13 7 3 13 -1 13 -10 0 -8 5 -12
10 -9 6 3 10 1 10 -6 0 -9 4 -9 15 1 12 10 14 8 10 -9 -4 -24 10 -37 21 -20 5
8 3 9 -6 4 -8 -5 -11 -4 -6 3 9 15 38 3 32 -14 -3 -8 0 -11 10 -7 8 3 14 2 13
-3 -4 -23 3 -26 20 -10 14 13 21 14 27 5 5 -8 3 -10 -7 -4 -12 8 -12 6 0 -8
11 -13 17 -14 35 -5 18 10 19 9 9 -3 -10 -12 -7 -14 15 -13 15 0 33 -5 40 -12
7 -7 20 -10 29 -7 10 4 14 2 10 -4 -4 -7 0 -10 10 -8 10 2 20 4 23 4 3 1 -2 6
-10 12 -10 7 -11 9 -2 7 8 -2 12 -7 10 -11 -6 -15 34 -31 42 -17 5 9 9 9 14 1
4 -6 12 -11 18 -11 7 0 7 4 -1 13 -8 10 -7 14 4 14 7 0 14 -3 13 -6 -2 -18 3
-31 12 -31 5 0 7 6 4 14 -3 8 1 17 8 22 7 4 10 4 6 -1 -4 -4 -3 -16 3 -27 8
-15 13 -17 25 -7 8 6 14 8 14 4 0 -4 8 -1 17 6 9 8 14 9 10 3 -4 -7 2 -11 18
-11 14 0 22 3 19 8 -3 5 0 9 5 9 6 0 11 -4 11 -10 0 -5 5 -10 11 -10 5 0 8 4
5 8 -2 4 4 8 15 8 22 0 24 -7 7 -25 -7 -8 -1 -6 15 4 15 9 27 19 27 22 0 2 -5
1 -10 -2 -15 -9 -12 1 4 14 12 10 14 8 12 -12 -3 -23 -2 -23 25 -10 16 8 38
11 50 8 14 -5 19 -3 15 3 -3 6 -1 14 5 18 7 4 9 3 6 -3 -8 -12 20 -39 30 -29
3 3 1 6 -5 6 -12 0 -11 34 1 46 3 4 5 -3 2 -15 -3 -18 1 -21 26 -21 18 0 28 4
24 10 -3 6 -2 10 4 10 5 0 11 -6 14 -12 3 -10 8 -10 18 1 9 9 9 11 2 7 -18
-10 -16 -1 3 14 8 8 14 9 13 4 -3 -19 1 -34 12 -34 5 0 7 5 4 10 -3 6 3 10 15
10 12 0 18 4 15 10 -4 7 3 7 20 0 14 -5 24 -6 21 -1 -3 5 1 11 9 14 9 4 12 1
8 -9 -3 -7 0 -14 6 -14 6 0 11 7 11 15 0 13 4 14 21 5 18 -10 19 -9 11 7 -8
15 -7 19 8 19 10 0 18 -3 17 -6 -3 -7 15 -9 30 -3 7 3 10 10 7 15 -5 7 4 9 24
6 17 -2 29 -1 26 4 -3 4 1 8 8 9 7 0 4 4 -6 8 -19 7 -19 8 2 13 12 4 20 2 16
-3 -3 -5 0 -9 6 -9 6 0 8 -6 4 -12 -4 -8 -3 -10 2 -5 5 5 9 12 9 15 0 4 4 13
9 21 6 10 5 12 -2 7 -7 -4 -12 -2 -12 3 0 6 5 11 10 11 6 0 5 6 -2 14 -7 8
-17 11 -23 8 -5 -3 -2 4 8 15 9 11 14 24 10 28 -5 5 0 3 10 -4 24 -19 21 -9
-8 25 -13 15 -22 30 -19 33 2 2 11 -4 18 -15 14 -19 15 -19 12 1 -2 11 2 26 8
34 8 11 8 13 -1 8 -6 -4 -14 -3 -17 2 -4 5 2 12 11 14 17 4 17 5 1 6 -10 0
-18 9 -18 19 0 15 2 15 11 2 9 -12 10 -12 5 3 -3 10 -6 21 -6 23 0 3 -5 2 -12
-2 -7 -4 -8 -3 -4 5 6 9 11 9 22 0 22 -18 17 -5 -11 27 -13 15 -22 30 -19 33
2 2 11 -4 18 -15 14 -19 15 -19 12 1 -2 11 1 25 6 32 11 14 -6 27 -24 18 -7
-4 -6 -1 2 7 17 15 24 38 12 38 -4 0 -8 9 -9 20 -1 11 3 20 8 20 6 0 8 -4 5
-9 -3 -5 2 -15 11 -22 15 -12 16 -12 8 1 -5 8 -11 24 -13 35 -7 37 -8 40 -17
55 -8 13 -7 13 10 0 17 -14 18 -13 12 3 -4 11 -1 17 9 17 9 0 12 5 8 12 -5 7
-2 9 9 5 11 -4 14 -2 10 8 -3 8 -10 12 -16 8 -6 -3 -7 -1 -3 6 6 9 11 9 24 -1
13 -11 14 -11 7 1 -6 11 -4 13 9 8 11 -5 15 -3 10 5 -5 7 -2 9 8 6 9 -4 15 0
15 8 0 8 -5 14 -10 14 -6 0 -7 3 -4 6 4 4 13 1 22 -6 14 -12 20 -6 17 21 -1 3
6 6 13 6 10 0 12 -4 5 -12 -5 -6 -5 -16 2 -25 8 -12 9 -12 4 2 -3 10 -1 20 4
23 11 7 9 33 -4 53 -6 11 -11 11 -24 0 -12 -10 -14 -10 -8 0 4 6 2 12 -3 12
-10 0 -15 -13 -13 -31 1 -3 -6 -6 -14 -6 -10 0 -11 4 -4 11 5 5 10 15 10 21
-1 5 -10 -1 -22 -15 -14 -16 -19 -19 -15 -7 8 22 -2 22 -20 -1 -13 -15 -13
-15 -4 5 6 12 20 25 31 28 11 4 18 11 15 16 -3 5 0 6 8 4 18 -8 39 34 31 65
-3 14 -6 30 -6 37 -1 6 -7 9 -15 6 -7 -3 -10 -9 -7 -14 3 -5 -2 -9 -10 -9 -8
0 -18 5 -21 10 -3 6 -2 10 3 10 14 0 22 26 9 29 -43 7 -125 5 -119 -4 3 -5 -2
-4 -11 4 -15 12 -17 11 -17 -3 0 -9 -4 -16 -10 -16 -5 0 -9 5 -7 11 1 6 -8 12
-20 14 -13 1 -23 -2 -23 -7 0 -5 -5 -6 -12 -2 -17 11 -108 12 -108 2 0 -5 -6
-6 -12 -1 -18 11 -68 12 -68 1 0 -5 -6 -6 -12 -1 -19 11 -68 12 -68 1 0 -5 -6
-6 -12 -1 -19 11 -68 12 -68 0 0 -6 -5 -5 -13 1 -15 13 -135 6 -153 -9 -16
-13 -8 -33 10 -26 8 3 13 -7 14 -29 2 -24 -2 -36 -13 -40 -14 -6 -13 -9 5 -26
12 -11 24 -17 27 -14 3 3 19 -4 35 -16 20 -14 28 -27 25 -39 -3 -11 -1 -19 5
-19 5 0 6 -5 2 -11 -4 -7 2 -6 17 2 23 12 23 11 9 -6 -14 -17 -14 -18 8 -6 19
10 22 9 22 -5 0 -10 5 -14 15 -10 8 3 14 2 14 -2 -1 -4 -1 -9 0 -12 2 -5 4
-252 2 -284 -1 -16 -3 -17 -18 -5 -17 13 -17 13 0 -7 21 -25 22 -35 2 -28 -11
5 -14 1 -9 -12 5 -18 5 -18 -6 -1 -6 9 -8 22 -4 29 5 7 3 8 -5 3 -7 -4 -11
-16 -8 -26 3 -10 2 -17 -2 -16 -13 4 -70 -37 -64 -46 3 -6 1 -7 -5 -3 -16 10
-93 -5 -85 -17 4 -6 1 -7 -8 -2 -26 17 -47 12 -59 -13 -6 -14 -14 -22 -17 -18
-4 3 -1 12 5 18 18 18 14 27 -8 23 -11 -2 -20 -1 -20 3 0 4 -9 8 -20 9 -11 1
-20 -2 -20 -8 0 -5 3 -8 8 -8 18 3 30 -2 35 -14 3 -7 -3 -13 -13 -13 -11 0
-16 5 -12 15 3 8 1 12 -5 8 -6 -4 -18 2 -28 13 -10 11 -22 17 -27 13 -6 -3
-15 1 -20 8 -8 11 -8 10 -4 -4 5 -15 2 -17 -15 -12 -15 5 -19 4 -14 -5 4 -7
17 -9 32 -5 15 3 22 2 19 -4 -4 -6 2 -8 13 -6 11 2 22 -2 24 -10 5 -10 -3 -11
-41 0 -95 25 -187 87 -217 147 -18 37 -18 38 -2 34 6 -1 9 -1 4 1 -4 3 -5 9
-2 13 3 5 -4 7 -15 5 -11 -2 -20 0 -20 6 0 5 8 9 18 9 15 1 15 2 2 13 -15 12
-19 23 -25 67 -1 14 -3 29 -4 33 0 5 -5 5 -11 2 -6 -4 -7 1 -3 11 3 10 2 15
-3 12 -5 -4 -9 4 -9 17 0 13 2 22 5 20 3 -2 6 9 5 25 0 15 -2 27 -5 25 -3 -2
-10 7 -17 21 -8 18 -8 26 3 35 10 8 12 7 9 -10 -2 -11 0 -23 4 -25 10 -6 8 40
-2 50 -12 12 -8 36 5 28 6 -4 4 3 -4 15 -16 23 -14 61 4 61 5 0 6 5 2 11 -4 8
-12 3 -20 -12 -7 -13 -13 -19 -14 -14 0 6 7 21 16 33 8 12 12 22 8 22 -3 0 -1
6 5 14 10 12 8 14 -13 12 -32 -4 -33 2 -4 13 12 4 22 17 23 29 1 12 -3 18 -8
15 -6 -4 -8 1 -4 11 4 10 7 20 7 22 0 3 5 2 12 -2 7 -5 8 -3 2 7 -11 18 -12
40 -1 63 6 13 6 16 -2 12 -6 -4 -11 -3 -11 3 0 5 8 12 18 14 16 4 16 5 0 6
-22 1 -12 31 11 31 13 0 14 2 1 9 -8 6 -18 7 -24 4 -5 -4 4 11 20 32 17 23 23
37 14 33 -11 -4 -16 0 -16 13 0 13 4 15 12 8 8 -7 15 -6 20 2 4 8 3 9 -4 5
-16 -10 -15 7 1 23 6 8 7 11 1 8 -6 -3 -11 0 -11 7 0 8 10 12 24 10 18 -2 21
1 14 10 -15 18 -9 58 11 64 15 3 16 8 6 26 -10 18 -9 19 4 9 12 -11 18 -9 32
6 13 14 14 21 5 27 -8 5 -10 3 -4 -6 5 -9 4 -11 -4 -6 -14 9 -5 26 15 26 8 0
13 4 9 9 -3 5 -1 12 5 16 6 4 8 11 5 16 -3 5 1 6 10 2 14 -5 14 -8 3 -15 -10
-8 -10 -9 2 -5 9 2 15 15 14 30 0 15 4 27 8 27 4 0 8 -4 8 -10 0 -5 5 -10 11
-10 6 0 9 7 6 15 -4 8 -2 17 3 20 4 3 11 -1 13 -7 3 -7 6 -3 6 9 1 12 6 25 13
29 6 4 8 3 4 -4 -3 -6 -2 -13 4 -17 5 -3 10 1 10 9 0 10 7 13 25 10 28 -5 30
-1 15 26 -7 13 -7 21 0 25 6 4 9 1 8 -6 -4 -17 61 -16 72 1 5 9 5 19 -1 26 -7
8 -6 15 2 20 7 4 9 3 5 -4 -3 -6 -2 -13 3 -17 6 -3 8 -12 5 -19 -3 -9 2 -13
18 -12 13 1 22 6 21 11 -1 6 9 10 22 10 13 0 21 -4 18 -9 -4 -5 -1 -6 5 -2 7
4 12 1 12 -6 0 -8 3 -9 8 -3 9 13 42 13 62 0 13 -8 13 -7 1 8 -13 16 -12 17
11 8 14 -5 29 -7 32 -4 3 4 6 1 6 -5 0 -6 10 -12 23 -14 12 -2 21 -9 19 -17
-2 -11 0 -12 10 -3 8 6 19 7 27 2 8 -4 21 -6 29 -2 11 4 13 2 7 -9 -7 -11 -5
-11 10 1 11 9 16 10 11 3 -4 -8 -1 -13 9 -13 18 0 47 -25 39 -33 -3 -3 9 -11
25 -18 17 -8 31 -19 31 -26 0 -7 7 -10 17 -6 10 4 14 2 10 -4 -4 -6 -1 -14 5
-16 9 -4 9 -6 -2 -7 -8 -1 3 -8 25 -16 22 -7 29 -12 15 -9 l-25 4 25 -19 c13
-10 29 -16 34 -13 5 3 6 1 2 -5 -4 -7 -3 -12 2 -12 5 0 12 -9 15 -19 3 -14 1
-18 -9 -14 -9 3 -12 -2 -9 -17 2 -13 6 -23 7 -24 32 -19 62 -25 73 -16 10 8
15 8 21 -1 4 -7 3 -9 -3 -6 -6 4 -17 -1 -24 -10 -12 -15 -12 -16 4 -10 10 4
16 3 12 -2 -3 -6 2 -14 11 -19 9 -5 15 -12 15 -15 -3 -19 0 -27 10 -27 5 0 7
5 4 10 -3 6 -1 10 5 10 6 0 8 5 4 12 -4 6 -3 9 2 5 5 -3 20 1 34 9 23 14 23
14 3 9 -14 -4 -23 -2 -23 5 0 6 -6 8 -12 5 -7 -4 -3 2 10 13 15 14 18 22 10
25 -10 4 -10 6 0 6 8 1 6 8 -8 23 -11 12 -18 24 -15 27 3 2 12 -4 19 -15 14
-19 15 -19 12 1 -2 11 2 26 8 34 8 11 8 13 -1 8 -6 -4 -14 -3 -18 3 -3 5 0 10
7 10 10 0 9 3 -2 10 -8 5 -11 12 -7 16 3 4 15 1 24 -6 10 -8 6 -1 -9 14 -33
32 -36 41 -8 26 26 -14 25 -9 -5 26 -13 15 -22 30 -19 33 2 2 11 -4 18 -15 14
-19 15 -19 12 1 -2 11 2 26 8 34 8 11 8 13 -1 8 -6 -4 -14 -3 -17 2 -4 5 2 12
11 14 17 4 17 5 1 6 -10 0 -18 9 -18 19 0 15 2 15 11 2 9 -12 10 -12 5 3 -3
10 -6 21 -6 23 0 3 -5 2 -12 -2 -7 -4 -8 -3 -4 5 6 9 11 9 22 0 20 -17 17 -6
-6 21 -11 13 -20 28 -20 33 0 6 7 2 15 -9 14 -18 14 -17 4 8 -10 22 -15 25
-26 16 -7 -6 -16 -8 -20 -4 -3 3 -2 6 4 6 5 0 9 16 9 35 -1 19 -5 35 -10 35
-5 0 -3 7 4 15 9 10 9 15 1 15 -6 0 -10 3 -10 8 4 26 -1 34 -15 22 -10 -8 -21
-8 -32 -2 -15 8 -14 11 7 26 16 11 19 16 8 16 -8 0 -21 -6 -28 -12 -11 -11
-12 -10 -7 0 6 9 1 12 -16 10 -30 -5 -50 -17 -43 -29 3 -5 -1 -6 -9 -3 -9 4
-18 0 -22 -9 -3 -9 -14 -14 -25 -12 -22 4 -25 -5 -7 -23 7 -7 9 -12 5 -12 -3
0 -15 10 -27 22 -11 12 -20 19 -20 15 0 -4 -10 -2 -22 4 -13 6 -20 8 -16 4 4
-5 2 -15 -5 -23 -10 -13 -9 -14 2 -7 10 6 12 4 6 -5 -5 -9 -4 -11 4 -6 6 4 9
12 6 17 -10 16 5 10 27 -11 12 -11 18 -23 15 -27 -4 -3 -7 -1 -7 5 0 7 -10 10
-22 8 -13 -2 -33 4 -45 12 -13 8 -23 11 -23 6 0 -4 -5 -3 -12 4 -7 7 -22 12
-34 12 -13 0 -26 5 -29 10 -4 6 -10 8 -15 5 -5 -3 -16 2 -24 11 -10 10 -16 11
-16 3 0 -8 -4 -8 -12 -2 -7 6 -20 11 -28 11 -16 1 -53 9 -57 12 -2 2 -12 3
-23 4 -11 0 -20 4 -20 9 0 4 0 12 0 17 0 6 5 10 11 10 5 0 7 -6 3 -12 -4 -7
-4 -10 1 -6 4 4 14 3 22 -3 10 -9 13 -8 13 2 0 9 3 10 8 4 8 -11 27 -18 54
-19 9 0 14 -5 11 -10 -4 -5 1 -7 11 -3 10 4 20 7 22 7 2 0 4 5 4 11 0 5 -5 7
-11 3 -6 -3 -15 0 -20 7 -6 10 -9 11 -9 2 0 -7 -5 -13 -11 -13 -5 0 -8 4 -5 8
3 5 0 9 -7 9 -7 0 -25 4 -42 8 -16 4 -50 8 -75 10 -25 2 -47 4 -50 5 -16 6
-110 4 -110 -3z m-59 -30 c-10 -9 -11 -8 -5 6 3 10 9 15 12 12 3 -3 0 -11 -7
-18z m92 3 c3 -11 1 -18 -4 -14 -5 3 -9 12 -9 20 0 20 7 17 13 -6z m47 9 c0
-5 6 -7 13 -3 6 4 8 3 4 -1 -13 -15 -34 -14 -34 1 0 8 4 14 9 14 4 0 8 -5 8
-11z m50 -4 c-7 -9 -15 -13 -19 -10 -3 3 1 10 9 15 21 14 24 12 10 -5z m31 2
c-6 -8 -7 -18 -3 -22 4 -5 1 -5 -6 -1 -10 6 -10 11 -1 22 6 8 14 14 16 14 3 0
0 -6 -6 -13z m-301 -11 c0 -2 -8 -10 -17 -17 -16 -13 -17 -12 -4 4 13 16 21
21 21 13z m-80 -36 c0 -5 -5 -10 -11 -10 -5 0 -7 5 -4 10 3 6 8 10 11 10 2 0
4 -4 4 -10z m980 -100 c0 -5 -5 -10 -11 -10 -5 0 -7 5 -4 10 3 6 8 10 11 10 2
0 4 -4 4 -10z m-645 -48 c-3 -3 -11 0 -18 7 -9 10 -8 11 6 5 10 -3 15 -9 12
-12z m-75 -32 c0 -5 -2 -10 -4 -10 -3 0 -8 5 -11 10 -3 6 -1 10 4 10 6 0 11
-4 11 -10z m76 -20 c0 -11 -4 -20 -8 -20 -10 0 -11 24 -1 33 9 9 9 10 9 -13z
m117 5 c-3 -9 -8 -14 -10 -11 -3 3 -2 9 2 15 9 16 15 13 8 -4z m127 -27 c0
-10 -9 -9 -35 2 -17 8 -16 8 8 7 15 -1 27 -5 27 -9z m23 -3 c-3 -9 -8 -14 -10
-11 -3 3 -2 9 2 15 9 16 15 13 8 -4z m-448 -15 c3 -5 1 -10 -4 -10 -6 0 -11 5
-11 10 0 6 2 10 4 10 3 0 8 -4 11 -10z m44 -4 c11 -14 6 -15 -27 -7 -4 1 8 21
12 21 2 0 9 -6 15 -14z m-99 -16 c0 -5 -2 -10 -4 -10 -3 0 -8 5 -11 10 -3 6
-1 10 4 10 6 0 11 -4 11 -10z m-545 -29 c-3 -6 -11 -11 -16 -11 -5 0 -4 6 3
14 14 16 24 13 13 -3z m1185 -21 c0 -5 -2 -10 -4 -10 -3 0 -8 5 -11 10 -3 6
-1 10 4 10 6 0 11 -4 11 -10z m-1229 -43 c-10 -9 -11 -8 -5 6 3 10 9 15 12 12
3 -3 0 -11 -7 -18z m4 -38 c-4 -5 -12 -9 -18 -8 -9 0 -8 2 1 6 6 2 9 10 6 15
-4 7 -2 8 5 4 6 -4 9 -12 6 -17z m-22 -39 c-3 -12 -8 -19 -11 -16 -5 6 5 36
12 36 2 0 2 -9 -1 -20z m527 6 c0 -3 -4 -8 -10 -11 -5 -3 -10 -1 -10 4 0 6 5
11 10 11 6 0 10 -2 10 -4z m-553 -25 c0 -11 -7 -17 -14 -14 -9 4 -9 8 0 19 16
17 16 17 14 -5z m487 -77 c3 -8 2 -12 -4 -9 -6 3 -10 10 -10 16 0 14 7 11 14
-7z m-39 -34 c3 -5 1 -10 -4 -10 -6 0 -11 5 -11 10 0 6 2 10 4 10 3 0 8 -4 11
-10z m-20 -80 c3 -5 1 -10 -4 -10 -6 0 -11 5 -11 10 0 6 2 10 4 10 3 0 8 -4
11 -10z m-15 -130 c0 -5 -2 -10 -4 -10 -3 0 -8 5 -11 10 -3 6 -1 10 4 10 6 0
11 -4 11 -10z m10 -54 c0 -2 -8 -10 -17 -17 -16 -13 -17 -12 -4 4 13 16 21 21
21 13z m-11 -59 c8 -10 7 -14 -2 -14 -8 0 -14 6 -14 14 0 7 1 13 2 13 2 0 8
-6 14 -13z m578 -34 c-4 -3 1 -12 11 -20 13 -10 14 -13 2 -11 -25 5 -36 38
-13 38 4 0 3 -3 0 -7z m49 -5 c-10 -6 -22 -6 -26 -2 -5 5 3 10 18 11 22 1 24
0 8 -9z m64 2 c0 -5 -5 -10 -11 -10 -5 0 -7 5 -4 10 3 6 8 10 11 10 2 0 4 -4
4 -10z m21 -17 c-12 -20 -14 -14 -5 12 4 9 9 14 11 11 3 -2 0 -13 -6 -23z m52
7 c3 -11 1 -18 -4 -14 -5 3 -9 12 -9 20 0 20 7 17 13 -6z m37 16 c0 -2 -7 -7
-16 -10 -8 -3 -12 -2 -9 4 6 10 25 14 25 6z m50 -6 c0 -5 -5 -10 -11 -10 -5 0
-7 5 -4 10 3 6 8 10 11 10 2 0 4 -4 4 -10z m21 -17 c-12 -20 -14 -14 -5 12 4
9 9 14 11 11 3 -2 0 -13 -6 -23z m52 7 c3 -11 1 -18 -4 -14 -5 3 -9 12 -9 20
0 20 7 17 13 -6z m47 5 c0 -2 -9 -3 -19 -2 -11 0 -18 5 -15 9 4 6 34 0 34 -7z
m21 -12 c-12 -20 -14 -14 -5 12 4 9 9 14 11 11 3 -2 0 -13 -6 -23z m64 17 c-3
-5 -12 -10 -18 -10 -7 0 -6 4 3 10 19 12 23 12 15 0z m82 3 c-4 -3 1 -12 11
-20 13 -10 14 -13 2 -11 -25 5 -36 38 -13 38 4 0 3 -3 0 -7z m43 -7 c-7 -7
-13 -7 -20 0 -6 6 -3 10 10 10 13 0 16 -4 10 -10z m-627 -9 c3 -8 -1 -14 -8
-14 -7 0 -11 6 -8 14 3 7 6 13 8 13 2 0 5 -6 8 -13z m666 10 c-2 -1 -13 -9
-24 -17 -19 -14 -19 -14 -6 3 7 9 18 17 24 17 6 0 8 -1 6 -3z m-1222 -22 c0
-8 -4 -12 -9 -9 -5 3 -6 10 -3 15 9 13 12 11 12 -6z m667 7 c3 -5 -1 -9 -9 -9
-8 0 -15 4 -15 9 0 4 4 8 9 8 6 0 12 -4 15 -8z m76 -2 c0 -5 -5 -10 -11 -10
-5 0 -7 5 -4 10 3 6 8 10 11 10 2 0 4 -4 4 -10z m84 2 c3 -5 -1 -9 -9 -9 -8 0
-15 4 -15 9 0 4 4 8 9 8 6 0 12 -4 15 -8z m76 -2 c0 -5 -5 -10 -11 -10 -5 0
-7 5 -4 10 3 6 8 10 11 10 2 0 4 -4 4 -10z m120 0 c0 -5 -5 -10 -11 -10 -5 0
-7 5 -4 10 3 6 8 10 11 10 2 0 4 -4 4 -10z m80 0 c0 -5 -5 -10 -11 -10 -5 0
-7 5 -4 10 3 6 8 10 11 10 2 0 4 -4 4 -10z m-1100 -114 c0 -3 -4 -8 -10 -11
-5 -3 -10 -1 -10 4 0 6 5 11 10 11 6 0 10 -2 10 -4z m1305 -47 c-4 -5 -12 -9
-18 -8 -9 0 -8 2 1 6 6 2 9 10 6 15 -4 7 -2 8 5 4 6 -4 9 -12 6 -17z m-85 -39
c0 -5 -5 -10 -11 -10 -5 0 -7 5 -4 10 3 6 8 10 11 10 2 0 4 -4 4 -10z m-65
-270 c-3 -5 -12 -10 -18 -10 -7 0 -6 4 3 10 19 12 23 12 15 0z m-655 -204 c0
-2 -7 -7 -16 -10 -8 -3 -12 -2 -9 4 6 10 25 14 25 6z m598 -71 c-3 -3 -9 2
-12 12 -6 14 -5 15 5 6 7 -7 10 -15 7 -18z m-1104 -13 c3 -5 -1 -9 -9 -9 -8 0
-12 4 -9 9 3 4 7 8 9 8 2 0 6 -4 9 -8z m1051 -22 c-3 -5 -12 -10 -18 -10 -7 0
-6 4 3 10 19 12 23 12 15 0z m-105 -20 c0 -5 -5 -10 -11 -10 -5 0 -7 5 -4 10
3 6 8 10 11 10 2 0 4 -4 4 -10z m-858 -42 c-8 -8 -9 -4 -5 13 4 13 8 18 11 10
2 -7 -1 -18 -6 -23z m952 -8 c-5 -5 -10 3 -11 18 -1 22 0 24 9 8 6 -10 6 -22
2 -26z m-903 -3 c-10 -9 -11 -8 -5 6 3 10 9 15 12 12 3 -3 0 -11 -7 -18z m644
13 c3 -5 1 -10 -4 -10 -6 0 -11 5 -11 10 0 6 2 10 4 10 3 0 8 -4 11 -10z m45
0 c0 -5 -2 -10 -4 -10 -3 0 -8 5 -11 10 -3 6 -1 10 4 10 6 0 11 -4 11 -10z
m-587 -33 c4 3 7 4 7 0 0 -18 -21 -14 -30 5 -10 21 -10 21 3 6 8 -10 17 -15
20 -11z m118 6 c13 -16 12 -17 -3 -4 -17 13 -22 21 -14 21 2 0 10 -8 17 -17z
m209 13 c0 -2 -7 -7 -16 -10 -8 -3 -12 -2 -9 4 6 10 25 14 25 6z m-247 -41
c-3 -9 -8 -14 -10 -11 -3 3 -2 9 2 15 9 16 15 13 8 -4z m128 -12 c7 -10 9 -15
5 -11 -5 4 -15 3 -23 -3 -9 -9 -13 -8 -13 0 0 6 5 11 11 11 5 0 7 5 4 10 -10
17 2 11 16 -7z m199 7 c0 -5 -5 -10 -11 -10 -5 0 -7 5 -4 10 3 6 8 10 11 10 2
0 4 -4 4 -10z"/>
        <path d="M1987 2454 c5 -13 3 -15 -7 -9 -8 5 -11 4 -6 -3 3 -6 18 -9 32 -6 14
3 23 1 20 -4 -2 -4 9 -7 25 -6 18 1 32 -3 36 -12 5 -15 23 -10 23 7 0 6 -4 8
-9 4 -5 -3 -12 -1 -16 5 -4 6 -11 8 -16 5 -5 -4 -9 -2 -9 4 0 6 -7 7 -17 4
-12 -5 -14 -3 -8 7 5 9 4 11 -3 6 -6 -4 -21 -2 -32 4 -16 9 -19 8 -13 -6z"/>
        <path d="M2350 2439 c0 -5 5 -7 10 -4 6 3 10 8 10 11 0 2 -4 4 -10 4 -5 0 -10
-5 -10 -11z"/>
        <path d="M2255 1980 c3 -5 11 -10 16 -10 6 0 7 5 4 10 -3 6 -11 10 -16 10 -6
0 -7 -4 -4 -10z"/>
        <path d="M1385 1920 c3 -5 8 -10 11 -10 2 0 4 5 4 10 0 6 -5 10 -11 10 -5 0
-7 -4 -4 -10z"/>
        <path d="M783 1829 c-1 -10 2 -19 8 -19 5 0 9 -4 9 -10 0 -5 -8 -7 -17 -4 -17
5 -17 5 0 -6 9 -6 17 -15 17 -20 0 -5 -8 -7 -17 -4 -15 5 -16 4 -3 -5 23 -16
30 -13 29 12 -1 12 2 30 5 39 5 11 1 20 -11 26 -15 9 -19 7 -20 -9z m27 -9 c0
-5 -2 -10 -4 -10 -3 0 -8 5 -11 10 -3 6 -1 10 4 10 6 0 11 -4 11 -10z"/>
        <path d="M2425 1830 c-3 -5 -2 -10 4 -10 5 0 13 5 16 10 3 6 2 10 -4 10 -5 0
-13 -4 -16 -10z"/>
        <path d="M764 1739 c-4 -8 -3 -9 4 -5 8 5 12 -1 12 -14 0 -13 -4 -19 -12 -14
-7 4 -8 3 -4 -5 10 -16 26 -4 26 19 0 23 -16 35 -26 19z"/>
        <path d="M750 1640 c0 -5 5 -10 11 -10 5 0 7 5 4 10 -3 6 -8 10 -11 10 -2 0
-4 -4 -4 -10z"/>
        <path d="M830 1246 c0 -2 7 -7 16 -10 8 -3 12 -2 9 4 -6 10 -25 14 -25 6z"/>
        <path d="M1939 1233 c-13 -17 -13 -17 6 -3 11 8 22 16 24 17 2 2 0 3 -6 3 -6
0 -17 -8 -24 -17z"/>
        <path d="M870 1170 c-8 -5 -12 -12 -9 -15 4 -3 12 1 19 10 14 17 11 19 -10 5z"/>
        <path d="M1940 1160 c8 -5 20 -10 25 -10 6 0 3 5 -5 10 -8 5 -19 10 -25 10 -5
0 -3 -5 5 -10z"/>
        <path d="M1939 1113 c-13 -16 -12 -17 4 -4 16 13 21 21 13 21 -2 0 -10 -8 -17
-17z"/>
        <path d="M1376 987 c3 -10 9 -15 12 -12 3 3 0 11 -7 18 -10 9 -11 8 -5 -6z"/>
        <path d="M1510 900 c-9 -6 -10 -10 -3 -10 6 0 15 5 18 10 8 12 4 12 -15 0z"/>
        <path d="M2435 760 c3 -5 8 -10 11 -10 2 0 4 5 4 10 0 6 -5 10 -11 10 -5 0 -7
-4 -4 -10z"/>
    </g>
</svg>
