<svg viewBox="0 0 64 64" xmlns="http://www.w3.org/2000/svg">
    <path
        d="m43.618931 37.924506c-.08148.124631-.239664.517676-.455363 1.174356-.22049.661474-.488915 1.485921-.805273 2.49251-.316357.99221-.661473 2.109047-1.025764 3.340923l-1.136008 3.777113c-.431398 1.2846-.766927 2.540442-1.150391 3.777112l-.958657 3.345714-.718993 2.502099-.335531 1.198323c-.143806.397843-.287597.838825-.527261 1.32774-.239666.479329-.527263.944277-.81486 1.380467-.335531.431396-.67106.80048-1.054524 1.088077-.383463.287597-.766927.431396-1.198323.431396-.671059 0-1.150389-.230078-1.485919-.67106-.33553-.455363-.479328-1.275016-.479328-2.473337v-1.083283c0-.397843.19173-1.150389.479328-2.243261.287597-1.102455.623128-2.339124 1.054523-3.719592.383465-1.390053.862792-2.818454 1.29419-4.299581l1.294188-4.026363c-1.15039 1.246256-2.348712 2.492511-3.642901 3.690832-1.294188 1.246257-2.636309 2.348711-3.978431 3.30737-1.390053.958657-2.780107 1.773517-4.17016 2.396645-1.390055.623128-2.732176.910726-4.026364.910726-1.48592 0-2.732174-.335531-3.786698-1.006593-1.054524-.671059-1.965249-1.485919-2.636309-2.540442-.671062-1.054524-1.198323-2.252846-1.533853-3.547034-.186939-1.241463-.37867-2.583584-.37867-3.877772v-.479329c0-.143807.01918-.301977.04793-.450568.115036-2.396645.455363-4.841224 1.006592-7.352906.575195-2.530858 1.294188-5.032955 2.204914-7.525465.910723-2.49251 1.965247-4.937089 3.16357-7.31456 1.246256-2.281606 2.540443-4.534451 3.930496-6.643499 1.390055-2.109048 2.885561-4.074295 4.45776-5.8478123 1.581787-1.7831048 3.197125-3.3169562 4.860396-4.6015582 1.658478-1.294188 3.33613-2.300779 5.032954-3.019773 1.677652-.718993 3.355302-1.102456 5.01378-1.102456 1.917316 0 3.767526.527262 5.560216 1.567405 1.773517 1.068904 3.451169 2.746555 5.023368 5.0952678.354703.5272612.575194 1.0545223.67106 1.5913711.09586.5272628.143806 1.0401449.143806 1.5098866 0 1.121629-.263632 2.013181-.800479 2.655483-.527263.671059-1.150391.958657-1.917316.958657-.671061 0-1.294189-.335529-1.869384-1.054524-.575195-.718993-1.246254-1.725584-1.917316-3.0197717-.671064-1.1983226-1.390058-2.0611144-2.204918-2.5883772-.814858-.5272616-1.67765-.7669246-2.636309-.7669246-1.485919 0-3.019771.623126-4.697423 1.869382-1.677652 1.2462559-3.30737 2.8280405-4.937089 4.8412215-1.629718 2.013182-3.211504 4.313961-4.697423 6.902337-1.48592 2.588377-2.828041 5.224686-3.978431 7.95686-1.150389 2.732176-2.061114 5.368485-2.732174 8.004794-.671061 2.636309-1.00659 4.98502-1.00659 7.094068 0 .718994.04793 1.437987.14379 2.15698.09586.766927.287598 1.390055.527262 2.013183.239663.623128.623128 1.102455 1.102457 1.485919.479328.383463 1.054522.575195 1.725584.575195.766926 0 1.67765-.239665 2.636309-.766927 1.00659-.527261 2.013181-1.198322 3.067705-2.061114 1.054523-.862792 2.156981-1.821451 3.211503-2.875975 1.054524-1.054522 2.109048-2.156979 3.019773-3.259435.910726-1.102457 1.773517-2.156981 2.444577-3.163572.718993-1.00659 1.246256-1.869382 1.629719-2.636309l2.775314-8.920312c.354705-.944278.81486-1.620131 1.404434-2.013181.575195-.402636 1.16477-.603954 1.773517-.603954.287597 0 .589575.04793.886759.143791.287597.09586.565608.24925.800479.460155.239666.191731.417017.47933.556023.814859.143806.335531.239663.718993.239663 1.198322 0 1.198323-.09586 2.32954-.287597 3.374476-.191732 1.054524-.479329 2.061115-.814858 3.067705-.287599.982626-.671062 1.984423-1.054524 2.995807-.383464 1.00659-.766927 2.061114-1.150391 3.163571z"
        fill="#1a1a1a" stroke="#fff" stroke-miterlimit="10" stroke-width=".479329"/>
</svg>
