<?xml version="1.0" encoding="iso-8859-1"?>
<!-- Generator: Adobe Illustrator 19.0.0, SVG Export Plug-In . SVG Version: 6.00 Build 0)  -->
<svg id="Capa_1" style="enable-background:new 0 0 470 470;" version="1.1" viewBox="0 0 470 470" x="0px"
     xml:space="preserve" xmlns="http://www.w3.org/2000/svg" y="0px">
<g><path d="M243.5,158.859c0,4.143,3.357,7.5,7.5,7.5s7.5-3.357,7.5-7.5c0-5.624,1.308-8.075,3.117-11.469
		c2.176-4.078,4.883-9.153,4.883-18.528c0-9.376-2.707-14.451-4.883-18.53c-1.81-3.394-3.117-5.846-3.117-11.471
		c0-5.626,1.308-8.078,3.118-11.472c2.175-4.079,4.882-9.155,4.882-18.53c0-4.143-3.357-7.5-7.5-7.5s-7.5,3.357-7.5,7.5
		c0,5.626-1.308,8.078-3.118,11.472c-2.175,4.079-4.882,9.155-4.882,18.53s2.707,14.451,4.882,18.529
		c1.811,3.394,3.118,5.846,3.118,11.472c0,5.624-1.308,8.076-3.117,11.47C246.207,144.41,243.5,149.485,243.5,158.859z" style="fill:black;"/>
    <path d="M203.5,158.859c0,4.143,3.357,7.5,7.5,7.5s7.5-3.357,7.5-7.5c0-5.624,1.308-8.075,3.117-11.469
		c2.176-4.078,4.883-9.153,4.883-18.528c0-9.376-2.707-14.451-4.883-18.53c-1.81-3.394-3.117-5.846-3.117-11.471
		c0-5.626,1.308-8.078,3.118-11.472c2.175-4.079,4.882-9.155,4.882-18.53c0-4.143-3.357-7.5-7.5-7.5s-7.5,3.357-7.5,7.5
		c0,5.626-1.308,8.078-3.118,11.472c-2.175,4.079-4.882,9.155-4.882,18.53s2.707,14.451,4.882,18.529
		c1.811,3.394,3.118,5.846,3.118,11.472c0,5.624-1.308,8.076-3.117,11.47C206.207,144.41,203.5,149.485,203.5,158.859z"
          style="fill:black;"/>
    <path d="M470,188.859c0-4.143-3.357-7.5-7.5-7.5h-88.363l86.98-83.909c0.032-0.031,0.064-0.063,0.097-0.095
		c11.695-11.696,11.695-30.729,0-42.427c-5.667-5.666-13.2-8.787-21.214-8.787s-15.547,3.121-21.214,8.787l-0.094,0.097
		L296.818,181.359H7.5c-4.143,0-7.5,3.357-7.5,7.5c0,62.771,24.444,121.784,68.83,166.17c24.032,24.032,52.359,42.205,83.243,53.83
		H147.5c-4.143,0-7.5,3.357-7.5,7.5s3.357,7.5,7.5,7.5h175c4.143,0,7.5-3.357,7.5-7.5s-3.357-7.5-7.5-7.5h-4.573
		c30.884-11.625,59.21-29.798,83.243-53.83C445.556,310.643,470,251.629,470,188.859z M450.606,65.535
		c5.834,5.835,5.849,15.318,0.043,21.171l-98.116,94.653h-34.874L429.436,65.493C435.287,59.686,444.772,59.701,450.606,65.535z
		 M454.874,196.359c-3.968,117.85-101.075,212.5-219.874,212.5s-215.906-94.65-219.874-212.5H454.874z"
          style="fill:black;"/>
    <path d="M114.774,330.609c0,4.142,3.358,7.5,7.5,7.5c1.816,0,3.48-0.645,4.778-1.719
		c1.663-1.375,2.722-3.454,2.722-5.781c0-4.142-3.358-7.5-7.5-7.5c-1.295,0-2.514,0.328-3.577,0.906
		c-0.125,0.068-0.244,0.147-0.365,0.222c-0.083,0.052-0.17,0.098-0.251,0.153C116.085,325.738,114.774,328.021,114.774,330.609z"
          style="fill:black;"/>
    <path d="M84.774,300.609c0,4.142,3.358,7.5,7.5,7.5c1.891,0,3.614-0.705,4.933-1.86
		c1.57-1.375,2.567-3.389,2.567-5.64c0-4.142-3.358-7.5-7.5-7.5c-1.296,0-2.514,0.329-3.578,0.907
		c-0.229,0.128-0.427,0.247-0.617,0.375C86.085,295.739,84.774,298.021,84.774,300.609z" style="fill:black;"/>
</g>
    <g>
</g>
    <g>
</g>
    <g>
</g>
    <g>
</g>
    <g>
</g>
    <g>
</g>
    <g>
</g>
    <g>
</g>
    <g>
</g>
    <g>
</g>
    <g>
</g>
    <g>
</g>
    <g>
</g>
    <g>
</g>
    <g>
</g>
</svg>
